#define arch-updates-symbolic_width 12
#define arch-updates-symbolic_height 12
static char arch-updates-symbolic_bits[] = {
  0x00, 0x00, 0x60, 0x00, 0x60, 0x00, 0xE0, 0x00, 0xF0, 0x00, 0xF8, 0x01, 
  0xF8, 0x05, 0xFC, 0x0C, 0x5C, 0x08, 0x5E, 0x08, 0xCE, 0x0C, 0x81, 0x0D, 
  };
