#define arch-uptodate-symbolic_width 12
#define arch-uptodate-symbolic_height 12
static char arch-uptodate-symbolic_bits[] = {
  0x00, 0x00, 0x60, 0x00, 0x60, 0x00, 0xE0, 0x00, 0xF0, 0x00, 0xF8, 0x01, 
  0xF8, 0x01, 0xDC, 0x03, 0x9C, 0x03, 0x9E, 0x03, 0x06, 0x06, 0x03, 0x08, 
  };
