#define arch-error-symbolic_width 12
#define arch-error-symbolic_height 12
static char arch-error-symbolic_bits[] = {
  0x00, 0x00, 0x00, 0x00, 0x60, 0x00, 0x40, 0x00, 0xC0, 0x00, 0x70, 0x00, 
  0xF8, 0x01, 0x08, 0x01, 0x04, 0x0F, 0x0C, 0x0F, 0x02, 0x0F, 0x00, 0x0F, 
  };
