#define spkr_mute_width 10
#define spkr_mute_height 10
static char spkr_mute_bits[] = {
  0x00, 0x00, 0x22, 0x00, 0x74, 0x00, 0x38, 0x00, 0x7E, 0x00, 0x3E, 0x00, 
  0x78, 0x00, 0xF0, 0x00, 0x20, 0x01, 0x00, 0x00, };
